<?xml version="1.0" encoding="UTF-8"?><svg id="Layer_1" xmlns="http://www.w3.org/2000/svg" width="98.072" height="96.375" viewBox="0 0 80 80"><path d="m9.33,77.81c-2.13,0-4.05-.86-5.45-2.26-1.4-1.4-2.26-3.32-2.26-5.45,0-2.13.86-4.05,2.26-5.45,1.4-1.4,3.32-2.26,5.45-2.26h61.57c.13,0,.26-.05.35-.15s.15-.22.15-.35V1.69c0-.13-.05-.26-.15-.35s-.22-.15-.35-.15H9.59c-4.95,0-8.96,4.01-8.96,8.96v59.95c0,.28.22.5.5.5s.5-.22.5-.5V10.15c0-2.2.89-4.19,2.33-5.63,1.44-1.44,3.43-2.33,5.63-2.33h60.82v59.21H9.33c-4.81,0-8.71,3.9-8.71,8.71,0,4.81,3.9,8.71,8.71,8.71.28,0,.5-.22.5-.5s-.22-.5-.5-.5Z"/><path d="m1.62,9.9c0-2.13.86-4.05,2.26-5.45,1.4-1.4,3.32-2.26,5.45-2.26.28,0,.5-.22.5-.5s-.22-.5-.5-.5c-4.81,0-8.71,3.9-8.71,8.71,0,.28.22.5.5.5s.5-.22.5-.5Z"/><path d="m9.33,78.81h69.78c.13,0,.26-.05.35-.15s.15-.22.15-.35V18.11l-.05-.22L71.35,1.47c-.12-.25-.42-.35-.67-.22s-.35.42-.22.67l8.15,16.31v59.59H9.33c-.28,0-.5.22-.5.5s.22.5.5.5Z"/><path d="m11,70.6c.13,0,.26-.05.35-.15s.15-.22.15-.35-.05-.26-.15-.35-.22-.15-.35-.15-.26.05-.35.15-.15.22-.15.35.05.26.15.35.22.15.35.15"/><path d="m66.6,70.6h0c.28,0,.5-.22.5-.5s-.22-.5-.5-.5-.5.22-.5.5.22.5.5.5Zm-2.53,0h0c.28,0,.5-.22.5-.5s-.22-.5-.5-.5-.5.22-.5.5.22.5.5.5Zm-2.53,0h0c.28,0,.5-.22.5-.5s-.22-.5-.5-.5-.5.22-.5.5.22.5.5.5Zm-2.53,0h0c.28,0,.5-.22.5-.5s-.22-.5-.5-.5-.5.22-.5.5.22.5.5.5Zm-2.53,0h0c.28,0,.5-.22.5-.5s-.22-.5-.5-.5-.5.22-.5.5.22.5.5.5Zm-2.53,0h0c.28,0,.5-.22.5-.5s-.22-.5-.5-.5-.5.22-.5.5.22.5.5.5Zm-2.53,0h0c.28,0,.5-.22.5-.5s-.22-.5-.5-.5-.5.22-.5.5.22.5.5.5Zm-2.53,0h0c.28,0,.5-.22.5-.5s-.22-.5-.5-.5-.5.22-.5.5.22.5.5.5Zm-2.53,0h0c.28,0,.5-.22.5-.5s-.22-.5-.5-.5-.5.22-.5.5.22.5.5.5Zm-2.53,0h0c.28,0,.5-.22.5-.5s-.22-.5-.5-.5-.5.22-.5.5.22.5.5.5Zm-2.53,0h0c.28,0,.5-.22.5-.5s-.22-.5-.5-.5-.5.22-.5.5.22.5.5.5Zm-2.53,0h0c.28,0,.5-.22.5-.5s-.22-.5-.5-.5-.5.22-.5.5.22.5.5.5Zm-2.53,0h0c.28,0,.5-.22.5-.5s-.22-.5-.5-.5-.5.22-.5.5.22.5.5.5Zm-2.53,0h0c.28,0,.5-.22.5-.5s-.22-.5-.5-.5-.5.22-.5.5.22.5.5.5Zm-2.53,0h0c.28,0,.5-.22.5-.5s-.22-.5-.5-.5-.5.22-.5.5.22.5.5.5Zm-2.53,0h0c.28,0,.5-.22.5-.5s-.22-.5-.5-.5-.5.22-.5.5.22.5.5.5Zm-2.53,0h0c.28,0,.5-.22.5-.5s-.22-.5-.5-.5-.5.22-.5.5.22.5.5.5Zm-2.53,0h0c.28,0,.5-.22.5-.5s-.22-.5-.5-.5-.5.22-.5.5.22.5.5.5Zm-2.53,0h0c.28,0,.5-.22.5-.5s-.22-.5-.5-.5-.5.22-.5.5.22.5.5.5Zm-2.53,0h0c.28,0,.5-.22.5-.5s-.22-.5-.5-.5-.5.22-.5.5.22.5.5.5Zm-2.53,0h0c.28,0,.5-.22.5-.5s-.22-.5-.5-.5-.5.22-.5.5.22.5.5.5Zm-2.53,0h0c.28,0,.5-.22.5-.5s-.22-.5-.5-.5-.5.22-.5.5.22.5.5.5Z"/><path d="m69.13,70.6c.13,0,.26-.05.35-.15s.15-.22.15-.35-.05-.26-.15-.35-.22-.15-.35-.15-.26.05-.35.15-.15.22-.15.35.05.26.15.35.22.15.35.15"/><rect x="37.3" y="20.2" width="1" height="7.31"/><path d="m44.02,20.7h-12.44l6.22-10.77,6.22,10.77Zm-10.71-1h8.98l-4.49-7.77-4.49,7.77Z"/><rect x="37.3" y="36.8" width="1" height="7.31"/><path d="m37.8,54.38l-6.22-10.77h12.44l-6.22,10.77Zm-4.49-9.77l4.49,7.77,4.49-7.77h-8.98Z"/><path d="m37.8,37.3c-9.34,0-16.95-7.6-16.95-16.95h1c0,8.79,7.15,15.95,15.95,15.95v1Z"/><path d="m37.8,37.3c-2.84,0-5.15-2.31-5.15-5.15s2.31-5.15,5.15-5.15,5.15,2.31,5.15,5.15-2.31,5.15-5.15,5.15Zm0-9.29c-2.29,0-4.15,1.86-4.15,4.15s1.86,4.15,4.15,4.15,4.15-1.86,4.15-4.15-1.86-4.15-4.15-4.15Z"/><path d="m21.36,20.85c-2.84,0-5.15-2.31-5.15-5.15s2.31-5.15,5.15-5.15,5.15,2.31,5.15,5.15-2.31,5.15-5.15,5.15Zm0-9.29c-2.29,0-4.15,1.86-4.15,4.15s1.86,4.15,4.15,4.15,4.15-1.86,4.15-4.15-1.86-4.15-4.15-4.15Z"/><path d="m54.75,43.95h-1c0-8.79-7.15-15.95-15.95-15.95v-1c9.34,0,16.95,7.6,16.95,16.95Z"/><path d="m54.25,53.74c-2.84,0-5.15-2.31-5.15-5.15s2.31-5.15,5.15-5.15,5.15,2.31,5.15,5.15-2.31,5.15-5.15,5.15Zm0-9.29c-2.29,0-4.15,1.86-4.15,4.15s1.86,4.15,4.15,4.15,4.15-1.86,4.15-4.15-1.86-4.15-4.15-4.15Z"/></svg>