<svg width="91.318" height="28.854" viewBox="0 0 24.161 7.634" version="1.1"
    xmlns="http://www.w3.org/2000/svg">
    <g transform="translate(-86.562 -149.865)">
        <g transform="matrix(.04216 0 0 .04216 86.008 149.317)">
            <path
                d="M148.08 81.07L58.52 81c-24.42 0-44.72 19.31-45.36 44.13-.02.66.53 1.21 1.19 1.21l89.56.06c24.42.01 44.72-19.3 45.36-44.11.02-.66-.53-1.21-1.19-1.21z"
                />
            <path
                d="M193.48 13.08l-134.96-.07c-24.42 0-44.72 19.31-45.36 44.13-.02.66.53 1.21 1.19 1.21l134.96.06c24.42.01 44.72-19.3 45.36-44.11.02-.66-.53-1.21-1.19-1.21z"
                />
            <circle cx="35.85" cy="171.4" r="22.7" transform="rotate(-10.9 35.84 171.43)"
                />
            <path d="M289.44 35.77h24.3v135.71h-24.3z" />
            <path
                d="M586.26 125.31c0-25.24-17.76-46.36-42.81-46.36-26.92 0-44.12 22.06-44.12 47.3 0 28.41 20.38 47.11 47.48 47.11 14.02 0 28.41-5.79 37.2-16.26l-13.83-13.83c-4.3 4.67-12.53 10.47-22.81 10.47-12.9 0-23.18-8.79-24.49-21.5h62.81c.37-2.06.56-4.49.56-6.92zm-62.25-10.84c1.12-8.23 9.35-15.89 19.44-15.89 10.09 0 17.2 7.85 17.95 15.89z"
                />
            <path
                d="M398.83 89.4l-1.72-1.4c-7.33-5.98-16.5-9.14-26.52-9.14-24.96 0-44.51 20.81-44.51 47.38 0 11.87 4.12 23.18 11.61 31.85 8.26 9.6 21.05 15.33 34.23 15.33 9.57 0 18.03-3.07 25.16-9.13l1.73-1.47v8.69h21.82V80.77h-21.82v8.63zm-25.26 64.81c-14.57 0-26.43-12.45-26.43-27.76 0-15.31 11.86-27.76 26.43-27.76S400 111.14 400 126.45c0 15.31-11.86 27.76-26.43 27.76z"
                />
            <path
                d="M484.03 78.86c-10.02 0-19.19 3.16-26.52 9.14l-1.72 1.4v-8.63h-21.82v90.74h21.79v-47.29c0-7.3 2.97-14.38 8.48-19.17 4.57-3.97 10.43-6.36 16.81-6.36 4.23 0 8.22 1.05 11.77 2.91l7.21-19.69a43.158 43.158 0 00-16.01-3.06z"
                />
            <path
                d="M251.86 61.33l.02-.03c3.21-3.81 8.18-5.74 14.79-5.74 2.02 0 4.59.29 6.63.73l3.46-19.2c-4.23-1.02-8.34-1.45-13.54-1.45-11.13 0-21.14 3.77-28.2 10.62-6.67 6.47-9.64 15.58-9.64 29.52v4.89h-16.7v18.97h16.7v71.85h22.8V99.63h25.9V80.66h-25.9v-3.93c0-8.93 1.41-12.52 3.67-15.4z"
                />
        </g>
    </g>
</svg>