<svg xmlns="http://www.w3.org/2000/svg" xmlns:xlink="http://www.w3.org/1999/xlink" width="98.037" height="96.341" viewBox="0 0 98.037 96.341">
  <defs>
    <clipPath id="clip-path">
      <rect id="Rectangle_1702" data-name="Rectangle 1702" width="98.037" height="96.341" fill="none"/>
    </clipPath>
  </defs>
  <g id="Group_106" data-name="Group 106" transform="translate(0 0)">
    <g id="Group_105" data-name="Group 105" transform="translate(0 0)" clip-path="url(#clip-path)">
      <path id="Path_1116" data-name="Path 1116" d="M97.975,20.712,87.782.325a.5.5,0,0,0-.058-.074.512.512,0,0,0-.053-.079c0-.006-.013-.007-.019-.013a.635.635,0,0,0-.1-.069.628.628,0,0,0-.087-.048A.55.55,0,0,0,87.34.018.528.528,0,0,0,87.257,0H11.1c-.086,0-.168.012-.254.013A.607.607,0,0,0,10.78,0,10.782,10.782,0,0,0,0,10.782a.607.607,0,0,0,.013.063c0,.086-.013.168-.013.254V85.56a10.78,10.78,0,0,0,10.78,10.78H97.45a.586.586,0,0,0,.587-.587V20.974ZM1.175,11.1A9.924,9.924,0,0,1,11.1,1.175H86.669v73.6H10.78a10.772,10.772,0,0,0-9.606,5.9ZM96.862,95.166H10.78a9.606,9.606,0,0,1,0-19.212H87.257a.588.588,0,0,0,.587-.587V3.077l9.018,18.036Z" transform="translate(0 0)"/>
      <path id="Path_1117" data-name="Path 1117" d="M11.028,72.319a.586.586,0,1,0,.416.172.594.594,0,0,0-.416-.172" transform="translate(1.826 12.645)"/>
      <path id="Path_1118" data-name="Path 1118" d="M29.73,72.319a.587.587,0,1,0,.587.587.588.588,0,0,0-.587-.587" transform="translate(5.095 12.645)"/>
      <path id="Path_1119" data-name="Path 1119" d="M37.745,72.319a.587.587,0,1,0,.587.587.588.588,0,0,0-.587-.587" transform="translate(6.497 12.645)"/>
      <path id="Path_1120" data-name="Path 1120" d="M35.074,72.319a.587.587,0,1,0,.587.587.588.588,0,0,0-.587-.587" transform="translate(6.03 12.645)"/>
      <path id="Path_1121" data-name="Path 1121" d="M27.058,72.319a.587.587,0,1,0,.587.587.588.588,0,0,0-.587-.587" transform="translate(4.628 12.645)"/>
      <path id="Path_1122" data-name="Path 1122" d="M32.4,72.319a.587.587,0,1,0,.587.587.588.588,0,0,0-.587-.587" transform="translate(5.563 12.645)"/>
      <path id="Path_1123" data-name="Path 1123" d="M24.386,72.319a.587.587,0,1,0,.587.587.588.588,0,0,0-.587-.587" transform="translate(4.161 12.645)"/>
      <path id="Path_1124" data-name="Path 1124" d="M16.371,72.319a.587.587,0,1,0,.587.587.588.588,0,0,0-.587-.587" transform="translate(2.76 12.645)"/>
      <path id="Path_1125" data-name="Path 1125" d="M13.7,72.319a.587.587,0,1,0,.587.587.588.588,0,0,0-.587-.587" transform="translate(2.293 12.645)"/>
      <path id="Path_1126" data-name="Path 1126" d="M21.715,72.319a.587.587,0,1,0,.587.587.588.588,0,0,0-.587-.587" transform="translate(3.694 12.645)"/>
      <path id="Path_1127" data-name="Path 1127" d="M19.043,72.319a.587.587,0,1,0,.587.587.588.588,0,0,0-.587-.587" transform="translate(3.227 12.645)"/>
      <path id="Path_1128" data-name="Path 1128" d="M51.1,72.319a.587.587,0,1,0,.587.587.588.588,0,0,0-.587-.587" transform="translate(8.833 12.645)"/>
      <path id="Path_1129" data-name="Path 1129" d="M61.791,72.319a.587.587,0,1,0,.587.587.588.588,0,0,0-.587-.587" transform="translate(10.701 12.645)"/>
      <path id="Path_1130" data-name="Path 1130" d="M59.12,72.319a.587.587,0,1,0,.587.587.588.588,0,0,0-.587-.587" transform="translate(10.234 12.645)"/>
      <path id="Path_1131" data-name="Path 1131" d="M64.463,72.319a.587.587,0,1,0,.587.587.588.588,0,0,0-.587-.587" transform="translate(11.168 12.645)"/>
      <path id="Path_1132" data-name="Path 1132" d="M69.806,72.319a.587.587,0,1,0,.587.587.588.588,0,0,0-.587-.587" transform="translate(12.102 12.645)"/>
      <path id="Path_1133" data-name="Path 1133" d="M67.135,72.319a.587.587,0,1,0,.587.587.588.588,0,0,0-.587-.587" transform="translate(11.635 12.645)"/>
      <path id="Path_1134" data-name="Path 1134" d="M45.761,72.319a.587.587,0,1,0,.587.587.588.588,0,0,0-.587-.587" transform="translate(7.898 12.645)"/>
      <path id="Path_1135" data-name="Path 1135" d="M56.448,72.319a.587.587,0,1,0,.587.587.588.588,0,0,0-.587-.587" transform="translate(9.767 12.645)"/>
      <path id="Path_1136" data-name="Path 1136" d="M43.089,72.319a.587.587,0,1,0,.587.587.588.588,0,0,0-.587-.587" transform="translate(7.431 12.645)"/>
      <path id="Path_1137" data-name="Path 1137" d="M40.417,72.319a.587.587,0,1,0,.587.587.588.588,0,0,0-.587-.587" transform="translate(6.964 12.645)"/>
      <path id="Path_1138" data-name="Path 1138" d="M53.776,72.319a.587.587,0,1,0,.587.587.588.588,0,0,0-.587-.587" transform="translate(9.3 12.645)"/>
      <path id="Path_1139" data-name="Path 1139" d="M48.432,72.319a.587.587,0,1,0,.587.587.588.588,0,0,0-.587-.587" transform="translate(8.365 12.645)"/>
      <path id="Path_1140" data-name="Path 1140" d="M72.478,72.319a.586.586,0,1,0,.416.172.594.594,0,0,0-.416-.172" transform="translate(12.57 12.645)"/>
      <path id="Path_1141" data-name="Path 1141" d="M20.93,20.076h0a.628.628,0,1,0-.26.849.629.629,0,0,0,.26-.849m.594,40.836h0a.652.652,0,0,0,.1,1.3h0a.651.651,0,1,0-.1-1.3M18.966,14.2h0a.628.628,0,1,0-.66.594.628.628,0,0,0,.66-.594m.127,41.976a.651.651,0,1,0,.445.806.652.652,0,0,0-.445-.806M53.425,54.8a.628.628,0,1,0,.147.876A.627.627,0,0,0,53.425,54.8Zm-34.069,5.14a.651.651,0,1,0-.383.838.651.651,0,0,0,.383-.838Zm2.78-9.87a.651.651,0,1,0,.226.892.651.651,0,0,0-.226-.892M18.409,17.6h0a.628.628,0,1,0,.369-.808.629.629,0,0,0-.369.808m9.232,41.053a.651.651,0,1,0,.883.262.652.652,0,0,0-.883-.262m2.9-1.719a.651.651,0,1,0,.7,1.1h0a.652.652,0,0,0-.7-1.1m2.81-1.89h0a.651.651,0,1,0,.908.155.65.65,0,0,0-.908-.155M21.7,22.689a.628.628,0,1,0,.866.2.628.628,0,0,0-.866-.2M23.4,13.3h0a.628.628,0,1,0-.371-.808.631.631,0,0,0,.371.808M24,47.2a.651.651,0,1,0,.175.9A.652.652,0,0,0,24,47.2m.623,12.883a.651.651,0,1,0,.846.364.651.651,0,0,0-.846-.364m-4.172-7.044a.651.651,0,0,0-.869.3h0a.651.651,0,0,0,1.172.567h0a.652.652,0,0,0-.3-.869M63.213,12.986a.651.651,0,1,0-.4-1.237h0a.651.651,0,1,0,.405,1.237m-8.829,4.782h0a.651.651,0,1,0-.906-.169.65.65,0,0,0,.906.169M20.446,12.692h0a.629.629,0,1,0-.666-.589.628.628,0,0,0,.666.589M57.7,17.673l.116,0A2.788,2.788,0,0,0,60.6,15l0-.115a2.769,2.769,0,0,0-.161-.9.636.636,0,0,0,.008-.577.644.644,0,0,0-.54-.347,2.773,2.773,0,0,0-1.981-.959l-.115,0a2.788,2.788,0,0,0-2.784,2.673v.116A2.787,2.787,0,0,0,57.7,17.673m-1.729-2.858a1.845,1.845,0,0,1,1.842-1.772h.078a1.834,1.834,0,0,1,1.332.663c0,.014.008.028.009.042a1.807,1.807,0,0,1,.281.472c.011.007.016.022.028.029a1.822,1.822,0,0,1,.119.636v.075l.47.021-.471-.019a1.843,1.843,0,0,1-1.841,1.769h-.079a1.845,1.845,0,0,1-1.768-1.842ZM63.094,26.99a.651.651,0,1,0-.907.162.649.649,0,0,0,.907-.162M66.252,12.56a.652.652,0,1,0-.528-.755.652.652,0,0,0,.528.755m-.4,8.822a.651.651,0,1,0-.274-.879.651.651,0,0,0,.274.879M64.1,24.318a.651.651,0,1,0-.208-.9.65.65,0,0,0,.208.9m-4.074,4.67a.651.651,0,1,0,.912-.126.651.651,0,0,0-.912.126m-33.833.14a.628.628,0,1,0-.88-.121.629.629,0,0,0,.88.121M23.508,25.45a.63.63,0,0,0-.154.875h0a.628.628,0,1,0,.153-.875m2.814-10.811a.629.629,0,1,0-.26-.849.628.628,0,0,0,.26.849m6.405,3.3a.628.628,0,1,0-.875.154.629.629,0,0,0,.875-.154m-3.6-1.659a.628.628,0,1,0-.2-.866.629.629,0,0,0,.2.866m22.5,3.468a.651.651,0,1,0-.911-.13.65.65,0,0,0,.911.13M25.09,44.565h0a.651.651,0,0,0,1.047.774h0a.651.651,0,0,0-1.048-.774M58.918,58.315a.628.628,0,0,0-.61,1.1h0a.629.629,0,1,0,.61-1.1M60.909,44.8a.629.629,0,1,0-.127.88.629.629,0,0,0,.127-.88m.906,14.935h0a.628.628,0,1,0,.342.82.629.629,0,0,0-.342-.82m-5.686-3.1h0a.628.628,0,1,0,.188.869.628.628,0,0,0-.188-.869m2.649-13.578a.629.629,0,0,0,.1-.883.615.615,0,0,0-.09-.075A16.922,16.922,0,0,0,39.143,19.633a2.776,2.776,0,0,0-2.359-1.526l-.019.471.018-.471-.115,0a2.776,2.776,0,0,0-1.971.826.577.577,0,0,0-.437.585,2.758,2.758,0,0,0-.375,1.263l0,.115a2.761,2.761,0,0,0,.142.839,16.943,16.943,0,0,0,.935,29.412,2.9,2.9,0,0,0-.075.539l0,.115a2.788,2.788,0,0,0,2.674,2.784l.116,0A2.784,2.784,0,0,0,40.227,52.9a16.793,16.793,0,0,0,18.11-9.705.625.625,0,0,0,.441-.133M34.825,20.818a1.907,1.907,0,0,1,.052-.361c.015-.062.041-.121.062-.181s.028-.1.048-.142h0a1.841,1.841,0,0,1,1.627-1.077c.018,0,.033-.009.051-.009l.078,0a1.769,1.769,0,0,1,.411.067c.041.011.079.028.12.042a1.786,1.786,0,0,1,.257.11,1.266,1.266,0,0,1,.116.069,1.9,1.9,0,0,1,.222.164c.031.027.062.053.092.082a1.944,1.944,0,0,1,.2.238c.013.018.031.032.042.051h0a1.816,1.816,0,0,1,.3.907h0c0,.038.011.073.011.11l0,.075h0c0,.026-.008.049-.011.075a1.946,1.946,0,0,1-.041.289c-.012.047-.032.09-.047.135a1.887,1.887,0,0,1-.072.2c-.022.046-.052.087-.076.13a1.737,1.737,0,0,1-.1.174c-.029.041-.067.076-.1.115a1.748,1.748,0,0,1-.132.147c-.038.035-.08.063-.12.1a1.885,1.885,0,0,1-.156.119c-.043.027-.092.048-.137.072a1.886,1.886,0,0,1-.176.087c-.049.019-.1.031-.153.046a1.818,1.818,0,0,1-.19.051,1.617,1.617,0,0,1-.169.016c-.053,0-.1.015-.159.015h-.09a1.864,1.864,0,0,1-.367-.055c-.019,0-.034-.013-.053-.019a1.841,1.841,0,0,1-1.3-1.431h0V21.22a1.507,1.507,0,0,1-.016-.163,1.536,1.536,0,0,1-.016-.163Zm4.433,31.9,0,0a1.846,1.846,0,0,1-.658.664l0,0a1.883,1.883,0,0,1-.383.164c-.038.012-.076.021-.115.031a1.958,1.958,0,0,1-.344.047c-.027,0-.052.011-.079.011h-.08a1.851,1.851,0,0,1-.466-.087h0a1.835,1.835,0,0,1-1.291-1.7c0-.019-.009-.034-.009-.053v-.074c0-.053.015-.1.022-.153a1.831,1.831,0,0,1,.634-1.178c.015-.013.032-.023.047-.036a1.954,1.954,0,0,1,.27-.179q.049-.026.1-.049a1.779,1.779,0,0,1,.257-.1c.045-.013.088-.026.134-.035a1.76,1.76,0,0,1,.274-.033c.034,0,.067-.012.1-.012h.082a1.909,1.909,0,0,1,.405.067c.041.011.08.028.12.042a1.785,1.785,0,0,1,.257.11c.04.021.076.043.114.068a1.727,1.727,0,0,1,.224.166c.029.026.06.051.087.078a1.914,1.914,0,0,1,.206.242c.012.016.027.029.039.046h0a1.8,1.8,0,0,1,.059,1.949Zm.647-.833h0l.081,0Zm14.333-4.4a15.766,15.766,0,0,1-13.791,4.482c0-.021.007-.041.008-.062l0-.115a2.788,2.788,0,0,0-2.674-2.784h-.116a2.778,2.778,0,0,0-2.311,1.243,15.937,15.937,0,0,1-.9-27.68,2.77,2.77,0,0,0,2.095,1.1l.115,0a2.79,2.79,0,0,0,2.784-2.674l0-.115a2.815,2.815,0,0,0-.034-.347,15.7,15.7,0,0,1,3.486-.4,16.028,16.028,0,0,1,15.32,11.324.634.634,0,0,0-.3.2.652.652,0,0,0,.1.916.638.638,0,0,0,.52.128,15.963,15.963,0,0,1-4.309,14.787m2.528-7.878a.628.628,0,1,0-.073.886A.628.628,0,0,0,56.766,39.614ZM62.85,47.5h0a.628.628,0,1,0-.162.874.628.628,0,0,0,.162-.874M55.82,35.189a.651.651,0,1,0-.069-.918.651.651,0,0,0,.069.918m-.372,22.5Zm12.1,1.466a.628.628,0,0,0-.773.437h0a.629.629,0,1,0,.774-.436m.248-42.073a.651.651,0,1,0,.387.836.651.651,0,0,0-.387-.836m1.129-2.726a.651.651,0,1,0-.638.664A.653.653,0,0,0,68.924,14.358ZM67.235,57.123a.628.628,0,1,0-.791-.405.629.629,0,0,0,.791.405m-2.064-2.538a2.788,2.788,0,0,0,2.784-2.674l0-.115a2.79,2.79,0,0,0-2.674-2.784l-.02.471.019-.471h-.115a2.786,2.786,0,0,0-2.783,2.673l0,.116a2.787,2.787,0,0,0,2.674,2.783ZM63.324,51.8v-.076a1.837,1.837,0,0,1,.25-.84.167.167,0,0,1,.009.026,1.822,1.822,0,0,1,.9-.8c-.007-.006-.012-.014-.019-.019a1.833,1.833,0,0,1,.7-.139h.078A1.845,1.845,0,0,1,67.015,51.8v.075a1.838,1.838,0,0,1-.693,1.359.157.157,0,0,1-.006-.022,1.81,1.81,0,0,1-1.161.409c0,.008,0,.016,0,.026h-.062A1.846,1.846,0,0,1,63.324,51.8M64.8,60.566h0a.628.628,0,1,0,.573.68.628.628,0,0,0-.573-.68m-10.2-23.455a.628.628,0,1,0-.051.887A.628.628,0,0,0,54.592,37.111ZM44.459,27.648a.629.629,0,0,0,.027.888h0a.629.629,0,1,0-.027-.889m-2.438-2.223a.629.629,0,1,0,.887-.047.627.627,0,0,0-.887.047m1.872,21.037a.651.651,0,1,0,.92.042.651.651,0,0,0-.92-.042m-.985-21.084ZM39.53,23.261a.628.628,0,1,0,.886-.069.629.629,0,0,0-.886.069M42.2,49.708h0Zm.066-.919a.651.651,0,1,0-.067.919.652.652,0,0,0,.067-.919m4.108-4.651h0a.651.651,0,1,0,.921.019.651.651,0,0,0-.921-.019m4.805-4.822a.651.651,0,1,0,.921-.023.65.65,0,0,0-.921.023m-1.111-7.051a.629.629,0,1,0-.012.889A.629.629,0,0,0,50.072,32.265Zm2.286,2.4a.628.628,0,1,0-.031.888.626.626,0,0,0,.031-.888Zm-3.186-1.52Zm-1.438-3.224a.628.628,0,1,0,.008.888.626.626,0,0,0-.008-.888Zm1.075,11.835a.651.651,0,1,0,.921,0,.651.651,0,0,0-.921,0" transform="translate(3.097 1.97)"/>
    </g>
  </g>
</svg>
