<svg xmlns="http://www.w3.org/2000/svg" xmlns:xlink="http://www.w3.org/1999/xlink" width="98.072" height="96.375" viewBox="0 0 98.072 96.375">
  <defs>
    <clipPath id="clip-path">
      <rect id="Rectangle_1178" data-name="Rectangle 1178" width="98.072" height="96.375" fill="#242425"/>
    </clipPath>
  </defs>
  <g id="Group_102" data-name="Group 102" transform="translate(0 0)">
    <g id="Group_102-2" data-name="Group 102" transform="translate(0 0)" clip-path="url(#clip-path)">
      <path id="Path_1037" data-name="Path 1037" d="M45.218,25H44.63a7.87,7.87,0,0,1-1.652,4.944,4.726,4.726,0,0,1-7.7,0,8.23,8.23,0,0,1,0-9.89,4.727,4.727,0,0,1,7.7,0A7.876,7.876,0,0,1,44.63,25h1.175a9.044,9.044,0,0,0-1.915-5.685,5.9,5.9,0,0,0-9.523,0,9.4,9.4,0,0,0,0,11.37,5.9,5.9,0,0,0,9.523,0A9.047,9.047,0,0,0,45.805,25Z" transform="translate(5.688 2.961)" fill="#242425"/>
      <path id="Path_1038" data-name="Path 1038" d="M32.561,49.932V41.456H31.385v8.476" transform="translate(5.501 7.266)" fill="#242425"/>
      <path id="Path_1039" data-name="Path 1039" d="M40.315,34.73h-.1a5.355,5.355,0,0,1-2.891-.7,2.831,2.831,0,0,1-1.262-1.669l-.24-.861-.7.561a7.942,7.942,0,0,1-2.031.968,19.871,19.871,0,0,0-4.386,1.992,5.947,5.947,0,0,0-1.758,1.8,5.059,5.059,0,0,0-.715,2.674V51.677h1.175V39.494a3.809,3.809,0,0,1,.932-2.6,9.245,9.245,0,0,1,3.742-2.239c.722-.276,1.44-.523,2.088-.783a6.724,6.724,0,0,0,1.69-.9l-.369-.457-.566.157A4.025,4.025,0,0,0,36.7,35.025a6.531,6.531,0,0,0,3.52.88h.1Z" transform="translate(4.599 5.521)" fill="#242425"/>
      <path id="Path_1040" data-name="Path 1040" d="M34.729,33.524a8.166,8.166,0,0,0,1.408-4.474l-1.175-.008a7.009,7.009,0,0,1-.6,2.738,6.848,6.848,0,0,1-.4.784l-.129.2-.032.048-.007.009Z" transform="translate(5.921 5.09)" fill="#242425"/>
      <path id="Path_1041" data-name="Path 1041" d="M45.057,49.932V41.456H43.882v8.476" transform="translate(7.691 7.266)" fill="#242425"/>
      <path id="Path_1042" data-name="Path 1042" d="M38.051,35.9h.1a6.531,6.531,0,0,0,3.52-.88,4.025,4.025,0,0,0,1.766-2.348l-.566-.157-.369.457a8.78,8.78,0,0,0,2.36,1.154,19.052,19.052,0,0,1,4.129,1.858,4.81,4.81,0,0,1,1.42,1.44,3.877,3.877,0,0,1,.544,2.066V51.677h1.175V39.494a5,5,0,0,0-1.216-3.365,10.3,10.3,0,0,0-4.213-2.57c-.745-.286-1.462-.532-2.071-.776a5.677,5.677,0,0,1-1.389-.723l-.7-.559-.24.86a2.831,2.831,0,0,1-1.262,1.669,5.355,5.355,0,0,1-2.891.7h-.1Z" transform="translate(6.669 5.521)" fill="#242425"/>
      <path id="Path_1043" data-name="Path 1043" d="M42.833,32.823l-.007-.009a7.072,7.072,0,0,1-1.168-3.771l-1.175.009a8.155,8.155,0,0,0,1.408,4.473Z" transform="translate(7.095 5.09)" fill="#242425"/>
      <path id="Path_1044" data-name="Path 1044" d="M10.784,95.2a9.61,9.61,0,0,1,0-19.219h76.5a.588.588,0,0,0,.588-.588V.588A.59.59,0,0,0,87.288,0H11.1A11.1,11.1,0,0,0,0,11.1V85.591a.588.588,0,0,0,1.175,0V11.1A9.927,9.927,0,0,1,11.1,1.175H86.7v73.63H10.784a10.785,10.785,0,0,0,0,21.57.588.588,0,1,0,0-1.175" transform="translate(0 0)" fill="#242425"/>
      <path id="Path_1045" data-name="Path 1045" d="M1.175,10.784a9.612,9.612,0,0,1,9.609-9.609.588.588,0,0,0,0-1.175A10.784,10.784,0,0,0,0,10.784a.588.588,0,0,0,1.175,0" transform="translate(0 0)" fill="#242425"/>
      <path id="Path_1046" data-name="Path 1046" d="M9.264,96.375h86.7a.586.586,0,0,0,.588-.588V20.982l-.062-.263L86.293.325a.588.588,0,0,0-1.052.525L95.376,21.122V95.2H9.264a.588.588,0,1,0,0,1.175" transform="translate(1.521 0)" fill="#242425"/>
      <path id="Path_1047" data-name="Path 1047" d="M11.029,73.494a.586.586,0,1,0-.416-.172.594.594,0,0,0,.416.172" transform="translate(1.83 12.675)" fill="#242425"/>
      <path id="Path_1048" data-name="Path 1048" d="M79.64,73.494h0a.588.588,0,1,0-.588-.588.588.588,0,0,0,.588.588m-3.14,0h0a.588.588,0,1,0-.588-.588.588.588,0,0,0,.588.588m-3.139,0h0a.588.588,0,1,0-.588-.588.588.588,0,0,0,.588.588m-3.14,0h0a.588.588,0,1,0-.588-.588.588.588,0,0,0,.588.588m-3.14,0h0a.588.588,0,1,0-.588-.588.588.588,0,0,0,.588.588m-3.14,0h0a.588.588,0,1,0-.588-.588.588.588,0,0,0,.588.588m-3.14,0h0a.588.588,0,1,0-.588-.588.587.587,0,0,0,.588.588m-3.139,0h0a.588.588,0,1,0-.588-.588.588.588,0,0,0,.588.588m-3.14,0h0a.588.588,0,1,0-.588-.588.588.588,0,0,0,.588.588m-3.14,0h0a.588.588,0,1,0-.588-.588.588.588,0,0,0,.588.588m-3.14,0h0a.588.588,0,1,0-.588-.588.587.587,0,0,0,.588.588m-3.139,0h0a.588.588,0,1,0-.588-.588.588.588,0,0,0,.588.588m-3.14,0h0a.588.588,0,1,0-.588-.588.588.588,0,0,0,.588.588m-3.14,0h0a.588.588,0,1,0-.588-.588.588.588,0,0,0,.588.588m-3.14,0h0a.588.588,0,1,0-.588-.588.587.587,0,0,0,.588.588m-3.139,0h0a.588.588,0,1,0-.588-.588.588.588,0,0,0,.588.588m-3.14,0h0a.588.588,0,1,0-.588-.588.588.588,0,0,0,.588.588m-3.14,0h0a.588.588,0,1,0-.588-.588.588.588,0,0,0,.588.588m-3.14,0h0a.588.588,0,1,0-.588-.588.587.587,0,0,0,.588.588m-3.139,0h0a.588.588,0,1,0-.588-.588.588.588,0,0,0,.588.588m-3.14,0h0a.588.588,0,1,0-.588-.588.588.588,0,0,0,.588.588m-3.14,0h0a.588.588,0,1,0-.588-.588.588.588,0,0,0,.588.588" transform="translate(2.298 12.675)" fill="#242425"/>
      <path id="Path_1049" data-name="Path 1049" d="M72.479,73.494a.586.586,0,1,0-.416-.172.594.594,0,0,0,.416.172" transform="translate(12.6 12.675)" fill="#242425"/>
    </g>
  </g>
</svg>
